attleground.2012.720p.BRRip.XviD.AC3-PRESTiGE

General Information:

Complete name: Battleground.2012.720p.BRRip.XviD.AC3-PRESTiGE
Format : AVI
Format/Info: Audio Video Interleave
Format profile : OpenDML
File size: 3.14 GiB
Duration : 1h 29mn
Overall bit rate : 5 052 Kbps
Subs : N/A
Source : 720p-HD4U Many THANKS
Encoder : akosipalos

iMDB: http://www.imdb.com/title/tt1754506/

Video

ID : 0
Format : MPEG-4 Visual
Format profile : Advanced Simple@L5
Format settings, BVOP: 2
Format settings, QPel: No
Format settings, GMC : No warppoints
Format settings, Matrix: Default (H.263)
Codec ID : XVID
Codec ID/Hint: XviD
Duration : 1h 29mn
Bit rate : 4 408 Kbps
Width: 1 280 pixels
Height : 512 pixels
Display aspect ratio : 2.500
Frame rate : 23.976 fps
Color space: YUV
Chroma subsampling : 4:2:0
Bit depth: 8 bits
Scan type: Progressive
Compression mode : Lossy
Bits/(Pixel*Frame) : 0.281
Stream size: 2.74 GiB (87%)
Writing library: XviD 1.2.1 (UTC 2008-12-04)

Audio

ID : 1
Format : AC-3
Format/Info: Audio Coding 3
Mode extension : CM (complete main)
Codec ID : 2000
Duration : 1h 29mn
Bit rate mode: Constant
Bit rate : 640 Kbps
Channel(s) : 2 channels
Channel positions: Front: L R
Sampling rate: 48.0 KHz
Bit depth: 16 bits
Compression mode : Lossy
Stream size: 408 MiB (13%)
Alignment: Split accross interleaves
Interleave, duration : 500 ms (11.99 video frames)
Interleave, preload duration : 500 ms


Plot:

Skeleton Lakes plot synopsis: Six ruthless bank robbers encounter someone far worse. Six bank robbers..

Take Care Of Our Children

Enjoy